HIERARCHY
ROOT Hips
{
	OFFSET 49.091099 -6.870336 95.561798
	CHANNELS 6 Xposition Yposition Zposition Xrotation Yrotation Zrotation
	JOINT spine
	{
		OFFSET 0.000000 -0.458068 7.965683
		CHANNELS 3 Xrotation Yrotation Zrotation
		JOINT spine1
		{
			OFFSET 0.000000 -0.000002 10.243103
			CHANNELS 3 Xrotation Yrotation Zrotation
			JOINT spine2
			{
				OFFSET 0.000000 -0.000001 9.814751
				CHANNELS 3 Xrotation Yrotation Zrotation
				JOINT Neck
				{
					OFFSET 0.000000 -1.201384 25.198601
					CHANNELS 3 Xrotation Yrotation Zrotation
					JOINT Head
					{
						OFFSET 0.000000 -0.000002 7.613144
						CHANNELS 3 Xrotation Yrotation Zrotation
						End Site
						{
							OFFSET 0.000000 6.077328 18.428101
						}
					}
				}
				JOINT RightShoulder
				{
					OFFSET -4.132702 0.575449 10.599205
					CHANNELS 3 Xrotation Yrotation Zrotation
					JOINT RightArm
					{
						OFFSET 0.000000 -0.000002 13.901794
						CHANNELS 3 Xrotation Yrotation Zrotation
						JOINT RightArmRoll
						{
							OFFSET 0.000000 -0.000001 7.017883
							CHANNELS 3 Xrotation Yrotation Zrotation
							JOINT RightForeArm
							{
								OFFSET 0.000000 -0.000003 20.440598
								CHANNELS 3 Xrotation Yrotation Zrotation
								JOINT RightForeArmRoll
								{
									OFFSET 0.000000 -0.000001 7.875153
									CHANNELS 3 Xrotation Yrotation Zrotation
									JOINT RightHand
									{
										OFFSET 0.000000 -0.000002 15.803696
										CHANNELS 3 Xrotation Yrotation Zrotation
										End Site
										{
											OFFSET 0.000000 0.000000 0.100006
										}
									}
								}
							}
						}
					}
				}
				JOINT LeftShoulder
				{
					OFFSET 4.132702 0.575449 10.599205
					CHANNELS 3 Xrotation Yrotation Zrotation
					JOINT LeftArm
					{
						OFFSET 0.000000 -0.000002 13.901794
						CHANNELS 3 Xrotation Yrotation Zrotation
						JOINT LeftArmRoll
						{
							OFFSET 0.000000 -0.000001 7.017883
							CHANNELS 3 Xrotation Yrotation Zrotation
							JOINT LeftForeArm
							{
								OFFSET 0.000000 -0.000003 20.440598
								CHANNELS 3 Xrotation Yrotation Zrotation
								JOINT LeftForeArmRoll
								{
									OFFSET 0.000000 -0.000001 7.875153
									CHANNELS 3 Xrotation Yrotation Zrotation
									JOINT LeftHand
									{
										OFFSET 0.000000 -0.000002 15.803696
										CHANNELS 3 Xrotation Yrotation Zrotation
										End Site
										{
											OFFSET 0.000000 0.000000 0.100006
										}
									}
								}
							}
						}
					}
				}
			}
		}
	}
	JOINT RightUpLeg
	{
		OFFSET -7.060482 1.086101 -1.294701
		CHANNELS 3 Xrotation Yrotation Zrotation
		JOINT RightUpLegRoll
		{
			OFFSET 0.000000 -0.000003 18.530800
			CHANNELS 3 Xrotation Yrotation Zrotation
			JOINT RightLeg
			{
				OFFSET 0.000000 0.000004 -22.947601
				CHANNELS 3 Xrotation Yrotation Zrotation
				JOINT RightLegRoll
				{
					OFFSET 0.000000 -0.000004 23.022598
					CHANNELS 3 Xrotation Yrotation Zrotation
					JOINT RightFoot
					{
						OFFSET 0.000000 -0.000003 19.162506
						CHANNELS 3 Xrotation Yrotation Zrotation
						JOINT RightToeBase
						{
							OFFSET 0.000000 -0.000003 16.018799
							CHANNELS 3 Xrotation Yrotation Zrotation
							End Site
							{
								OFFSET 0.006790 0.894206 7.757812
							}
						}
					}
				}
			}
		}
	}
	JOINT LeftUpLeg
	{
		OFFSET 7.060482 1.086101 -1.294701
		CHANNELS 3 Xrotation Yrotation Zrotation
		JOINT LeftUpLegRoll
		{
			OFFSET 0.000000 -0.000003 18.530899
			CHANNELS 3 Xrotation Yrotation Zrotation
			JOINT LeftLeg
			{
				OFFSET 0.000000 -0.000003 22.947502
				CHANNELS 3 Xrotation Yrotation Zrotation
				JOINT LeftLegRoll
				{
					OFFSET 0.000000 -0.000004 23.235504
					CHANNELS 3 Xrotation Yrotation Zrotation
					JOINT LeftFoot
					{
						OFFSET 0.000000 -0.000003 18.949600
						CHANNELS 3 Xrotation Yrotation Zrotation
						JOINT LeftToeBase
						{
							OFFSET 0.000000 -0.000002 16.018799
							CHANNELS 3 Xrotation Yrotation Zrotation
							End Site
							{
								OFFSET -0.030430 0.894205 7.757812
							}
						}
					}
				}
			}
		}
	}
}
MOTION
Frames: 4
Frame Time: 0.041667
49.559105 -5.582744 95.434700 -3.071091 1.291643 -3.918556 -2.107178 -0.878618 -0.035768 -0.212405 -1.758278 -0.094474 1.432995 -1.759290 -0.073398 23.587771 -1.625984 11.828429 -9.659136 8.576855 11.540218 9.462300 -68.647663 9.317699 -40.893217 -116.318285 -44.477102 -0.000001 0.000007 0.000002 21.751998 -21.549609 3.715122 -0.000002 -0.000001 -3.006689 -5.000279 -7.999439 0.000180 -0.006166 74.988995 1.887370 -46.163992 114.927236 48.479491 0.000001 0.000010 -0.000002 25.526179 19.746565 -4.053282 -0.000002 0.000003 3.006971 -5.000370 7.999201 -0.000225 1.526439 -176.273317 -2.010133 -179.999991 0.000006 -1.124995 174.508929 -2.753329 -0.689576 -0.000006 -0.000004 0.015030 68.951757 6.591433 2.910727 25.458316 -7.349786 0.002091 2.944439 171.001709 -2.907721 -0.000005 -0.000004 -1.226250 -8.188868 3.196532 0.425260 -0.000008 0.000004 -0.183669 71.893902 -6.843102 -2.053702 25.464166 7.348091 -0.010609 
49.560001 -5.606515 95.457611 -3.097025 1.297213 -3.917948 -2.099488 -0.880409 -0.030048 -0.196931 -1.762330 -0.082116 1.448466 -1.763177 -0.060992 23.571801 -1.676289 11.804823 -9.669781 8.615174 11.514506 9.331690 -68.666105 9.170467 -40.932005 -116.326796 -44.536894 -0.000002 0.000007 0.000002 21.820260 -21.534598 3.722716 -0.000005 -0.000002 -3.006691 -5.000279 -7.999442 0.000179 0.112685 74.952768 1.755115 -46.217223 114.969432 48.618646 0.000001 0.000010 -0.000002 25.591435 19.788013 -4.072192 -0.000001 0.000003 3.006973 -5.000369 7.999198 -0.000225 1.562790 -176.282374 -2.011266 -179.999991 0.000006 -1.126006 174.521182 -2.751387 -0.688796 -0.000005 -0.000004 0.015002 68.953943 6.595203 2.900800 25.458313 -7.349786 0.002091 2.973223 170.996941 -2.911809 -0.000005 -0.000004 -1.227080 -8.193776 3.186456 0.424307 -0.000008 0.000004 -0.185525 71.902399 -6.847274 -2.041448 25.463966 7.348086 -0.010285 
49.565403 -5.599239 95.439209 -3.124216 1.303031 -3.916773 -2.091511 -0.882204 -0.024129 -0.180856 -1.766401 -0.069303 1.464547 -1.767103 -0.048131 23.554344 -1.726945 11.779289 -9.679969 8.652400 11.487042 9.196022 -68.684703 9.017616 -40.972427 -116.334678 -44.597901 0.000000 0.000007 0.000002 21.887362 -21.519158 3.730011 -0.000003 0.000001 -3.006689 -5.000282 -7.999437 0.000179 0.232391 74.915181 1.621748 -46.263402 115.014129 48.749710 0.000001 0.000009 -0.000002 25.654100 19.828497 -4.090620 -0.000002 0.000001 3.006971 -5.000365 7.999202 -0.000226 1.601082 -176.292442 -2.012340 -179.999991 0.000005 -1.127004 174.534023 -2.748467 -0.687895 -0.000005 -0.000004 0.014961 68.956251 6.599055 2.890679 25.458318 -7.349786 0.002091 3.003629 170.993198 -2.915513 -0.000005 -0.000004 -1.227930 -8.198306 3.175629 0.423291 -0.000008 0.000004 -0.187444 71.911387 -6.851617 -2.028691 25.463659 7.348085 -0.009808 
49.558605 -5.601187 95.453407 -3.152280 1.309007 -3.915215 -2.083309 -0.884002 -0.018071 -0.164361 -1.770503 -0.056170 1.481037 -1.771039 -0.034952 23.536016 -1.777840 11.752584 -9.689831 8.688864 11.458301 9.056716 -68.703288 8.860727 -41.010361 -116.344158 -44.655708 0.000001 0.000007 0.000002 21.953533 -21.503435 3.737034 -0.000007 -0.000000 -3.006692 -5.000281 -7.999441 0.000181 0.352505 74.876529 1.487824 -46.306213 115.060137 48.876762 0.000001 0.000010 -0.000002 25.714991 19.868365 -4.108763 -0.000005 0.000003 3.006971 -5.000367 7.999200 -0.000226 1.640738 -176.302523 -2.013383 -179.999991 0.000005 -1.128001 174.547301 -2.745537 -0.686972 -0.000006 -0.000004 0.014911 68.958696 6.602987 2.880367 25.458316 -7.349786 0.002092 3.035190 170.988458 -2.919045 -0.000005 -0.000004 -1.228810 -8.202571 3.164282 0.422230 -0.000008 0.000004 -0.189407 71.920642 -6.856073 -2.015635 25.463263 7.348083 -0.009213 
